<svg width="128" height="128" viewBox="0 0 128 128" fill="none" xmlns="http://www.w3.org/2000/svg">
<g clip-path="url(#clip0_1_2)">
<path d="M64 128C99.3462 128 128 99.3462 128 64C128 28.6538 99.3462 0 64 0C28.6538 0 0 28.6538 0 64C0 99.3462 28.6538 128 64 128Z" fill="#002836"/>
<g clip-path="url(#clip1_1_2)">
<path d="M25.6868 68.3659V59.1561H28.2094V67.6228L27.073 66.3616H31.4937V68.3659H25.6868ZM33.6133 61.0293L34.7497 59.8929V63.4831L34.1877 62.8088H37.497V64.682H34.1877L34.7497 64.0139V67.6291L33.6133 66.4927H38.1901V68.3659H32.2146V59.1561H38.1901V61.0293H33.6133ZM38.6347 68.3659L40.7763 59.1561H44.7787L46.9078 68.3659H44.3291L42.7744 60.6609H42.7868L41.2134 68.3659H38.6347ZM40.5078 66.4302V64.5383H45.0534V66.4302H40.5078ZM47.4653 68.3659V59.1561H51.5488C52.5978 59.1561 53.3721 59.3892 53.8716 59.8554C54.3753 60.3175 54.6272 60.9627 54.6272 61.791C54.6272 62.2572 54.5376 62.6548 54.3587 62.9836C54.1796 63.3125 53.957 63.5664 53.6905 63.7454C53.4241 63.9244 53.1598 64.0243 52.8975 64.0451C53.1681 64.0617 53.42 64.1262 53.6531 64.2386C53.8862 64.351 54.0735 64.5321 54.2151 64.7819C54.3607 65.0275 54.4336 65.3605 54.4336 65.7809C54.4336 66.0473 54.4336 66.3012 54.4336 66.5426C54.4336 66.7841 54.4336 67.038 54.4336 67.3044C54.4336 67.525 54.4502 67.7352 54.4835 67.935C54.5209 68.1307 54.5771 68.2743 54.6521 68.3659H52.1295C52.0629 68.2618 52.0109 68.114 51.9734 67.9225C51.9402 67.7311 51.9235 67.525 51.9235 67.3044C51.9235 67.0755 51.9235 66.8694 51.9235 66.6862C51.9235 66.5031 51.9235 66.297 51.9235 66.0681C51.9235 65.7351 51.8528 65.4728 51.7112 65.2814C51.5697 65.0857 51.3137 64.9879 50.9432 64.9879H49.2698L49.9254 64.2199V68.3659H47.4653ZM49.9254 63.9951L49.2698 63.1147H50.9682C51.1804 63.1147 51.3657 63.071 51.5239 62.9836C51.6862 62.8962 51.8111 62.7713 51.8985 62.609C51.9901 62.4425 52.0359 62.2489 52.0359 62.0283C52.0359 61.7577 51.9381 61.5225 51.7424 61.3227C51.5509 61.1229 51.2887 61.023 50.9557 61.023H49.2074L49.9254 60.2738V63.9951ZM57.8495 68.3659H55.3956V59.1561H59.2419L61.7831 67.6103L61.2961 67.7102V59.1561H63.75V68.3659H59.8725L57.3312 59.9428L57.8495 59.8429V68.3659ZM74.1372 59.1561H78.3769V68.3659H75.9855V60.4985L76.0292 60.5235L74.5993 68.3659H71.3899L69.9164 60.5048L69.9601 60.4798V68.3659H67.5624V59.1561H71.802L73.0883 67.4043H72.8323L74.1372 59.1561ZM83.6384 68.5282C83.0431 68.5282 82.477 68.4262 81.94 68.2222C81.4072 68.0183 80.9348 67.7144 80.5227 67.3106C80.1106 66.9069 79.7859 66.4074 79.5486 65.8121C79.3113 65.2168 79.1927 64.53 79.1927 63.7516C79.1927 62.969 79.3092 62.2822 79.5424 61.6911C79.7796 61.1 80.1022 60.6047 80.5102 60.2051C80.9223 59.8055 81.3947 59.5058 81.9275 59.306C82.4645 59.102 83.0347 59 83.6384 59C84.2419 59 84.8122 59.102 85.3492 59.306C85.8862 59.5058 86.3586 59.8055 86.7666 60.2051C87.1787 60.6047 87.5012 61.1 87.7344 61.6911C87.9674 62.2822 88.084 62.969 88.084 63.7516C88.084 64.53 87.9654 65.2168 87.7281 65.8121C87.4909 66.4074 87.1641 66.9069 86.7478 67.3106C86.3357 67.7144 85.8612 68.0183 85.3242 68.2222C84.7914 68.4262 84.2294 68.5282 83.6384 68.5282ZM83.6384 66.5801C83.9463 66.5801 84.244 66.4968 84.5312 66.3303C84.8226 66.1597 85.0599 65.8683 85.243 65.4562C85.4304 65.0441 85.524 64.4759 85.524 63.7516C85.524 63.0232 85.4304 62.457 85.243 62.0533C85.0557 61.6453 84.8185 61.3602 84.5312 61.1979C84.244 61.0314 83.9463 60.9481 83.6384 60.9481C83.3344 60.9481 83.0368 61.0314 82.7455 61.1979C82.4583 61.3602 82.221 61.6453 82.0337 62.0533C81.8464 62.457 81.7527 63.0232 81.7527 63.7516C81.7527 64.4801 81.8464 65.0503 82.0337 65.4624C82.221 65.8704 82.4583 66.1597 82.7455 66.3303C83.0368 66.4968 83.3344 66.5801 83.6384 66.5801ZM88.8361 68.3659V59.1561H92.9196C93.9686 59.1561 94.7428 59.3892 95.2423 59.8554C95.746 60.3175 95.9979 60.9627 95.9979 61.791C95.9979 62.2572 95.9083 62.6548 95.7294 62.9836C95.5504 63.3125 95.3277 63.5664 95.0613 63.7454C94.7949 63.9244 94.5305 64.0243 94.2683 64.0451C94.5389 64.0617 94.7907 64.1262 95.0238 64.2386C95.2569 64.351 95.4443 64.5321 95.5858 64.7819C95.7315 65.0275 95.8043 65.3605 95.8043 65.7809C95.8043 66.0473 95.8043 66.3012 95.8043 66.5426C95.8043 66.7841 95.8043 67.038 95.8043 67.3044C95.8043 67.525 95.8209 67.7352 95.8542 67.935C95.8917 68.1307 95.9479 68.2743 96.0228 68.3659H93.5003C93.4337 68.2618 93.3817 68.114 93.3442 67.9225C93.3109 67.7311 93.2942 67.525 93.2942 67.3044C93.2942 67.0755 93.2942 66.8694 93.2942 66.6862C93.2942 66.5031 93.2942 66.297 93.2942 66.0681C93.2942 65.7351 93.2235 65.4728 93.082 65.2814C92.9405 65.0857 92.6845 64.9879 92.314 64.9879H90.6406L91.2962 64.2199V68.3659H88.8361ZM91.2962 63.9951L90.6406 63.1147H92.3389C92.5512 63.1147 92.7364 63.071 92.8946 62.9836C93.057 62.8962 93.1819 62.7713 93.2693 62.609C93.3608 62.4425 93.4066 62.2489 93.4066 62.0283C93.4066 61.7577 93.3088 61.5225 93.1132 61.3227C92.9217 61.1229 92.6595 61.023 92.3264 61.023H90.5782L91.2962 60.2738V63.9951ZM98.165 61.0293L99.3014 59.8929V63.4831L98.7394 62.8088H102.049V64.682H98.7394L99.3014 64.0139V67.6291L98.165 66.4927H102.742V68.3659H96.7663V59.1561H102.742V61.0293H98.165Z" fill="#FFFEF8"/>
</g>
</g>
<defs>
<clipPath id="clip0_1_2">
<rect width="128" height="128" fill="white"/>
</clipPath>
<clipPath id="clip1_1_2">
<rect width="78.0488" height="10.1463" fill="white" transform="translate(25 59)"/>
</clipPath>
</defs>
</svg>
