<svg width="128" height="128" viewBox="0 0 128 128" fill="none" xmlns="http://www.w3.org/2000/svg">
<g clip-path="url(#clip0_1_2)">
<path d="M64 128C99.3462 128 128 99.3462 128 64C128 28.6538 99.3462 0 64 0C28.6538 0 0 28.6538 0 64C0 99.3462 28.6538 128 64 128Z" fill="#DBA349"/>
<path d="M45.99 74.7188L42.42 59.2312H47.1135L49.2555 72.2932H49.098L51.2295 59.2312H55.923L52.374 74.7188H45.99ZM56.4715 74.7188V63.5677H60.661V74.7188H56.4715ZM58.561 62.2552C57.938 62.2552 57.392 62.0942 56.923 61.7722C56.461 61.4502 56.23 60.9917 56.23 60.3967C56.23 59.7947 56.461 59.3362 56.923 59.0212C57.392 58.6992 57.938 58.5382 58.561 58.5382C59.184 58.5382 59.7265 58.6992 60.1885 59.0212C60.6575 59.3362 60.892 59.7947 60.892 60.3967C60.892 60.9987 60.6575 61.4607 60.1885 61.7827C59.7265 62.0977 59.184 62.2552 58.561 62.2552ZM63.5476 70.2982V67.7782H70.1206L69.8056 68.3242C69.8056 68.2682 69.8056 68.2087 69.8056 68.1457C69.8056 68.0757 69.8056 68.0162 69.8056 67.9672C69.8056 67.7292 69.7356 67.4842 69.5956 67.2322C69.4626 66.9732 69.2421 66.7562 68.9341 66.5812C68.6331 66.4062 68.2271 66.3187 67.7161 66.3187C67.2191 66.3187 66.8026 66.4237 66.4666 66.6337C66.1306 66.8437 65.8786 67.1552 65.7106 67.5682C65.5426 67.9742 65.4586 68.4712 65.4586 69.0592C65.4586 69.6752 65.5391 70.2002 65.7001 70.6342C65.8611 71.0682 66.1166 71.4007 66.4666 71.6318C66.8166 71.8557 67.2751 71.9677 67.8421 71.9677C68.1781 71.9677 68.4651 71.9432 68.7031 71.8942C68.9411 71.8452 69.1301 71.7822 69.2701 71.7052C69.4171 71.6282 69.5256 71.5442 69.5956 71.4532C69.6726 71.3622 69.7181 71.2747 69.7321 71.1907H73.9111C73.8621 71.6807 73.6836 72.1532 73.3756 72.6082C73.0746 73.0632 72.6581 73.4727 72.1261 73.8367C71.5941 74.1937 70.9536 74.4773 70.2046 74.6872C69.4556 74.8903 68.6086 74.9918 67.6636 74.9918C66.3546 74.9918 65.2206 74.7467 64.2616 74.2567C63.3026 73.7597 62.5641 73.0737 62.0461 72.1987C61.5281 71.3167 61.2691 70.3052 61.2691 69.1642C61.2691 67.9952 61.5351 66.9732 62.0671 66.0982C62.5991 65.2232 63.3446 64.5442 64.3036 64.0612C65.2696 63.5782 66.3896 63.3367 67.6636 63.3367C68.9796 63.3367 70.1136 63.5852 71.0656 64.0822C72.0246 64.5722 72.7631 65.2722 73.2811 66.1822C73.7991 67.0852 74.0581 68.1597 74.0581 69.4057C74.0581 69.6157 74.0546 69.7942 74.0476 69.9412C74.0406 70.0882 74.0301 70.2072 74.0161 70.2982H63.5476ZM83.7913 74.7188L81.9853 63.5677H84.8833L86.8048 73.7107L86.1433 73.7317L87.2668 63.5677H91.6348L89.5243 74.7188H83.7913ZM75.8953 74.7188L73.7953 63.5677H78.1633L79.2763 73.7317L78.6253 73.7107L80.5363 63.5677H83.4343L81.6493 74.7188H75.8953Z" fill="#002836"/>
</g>
<defs>
<clipPath id="clip0_1_2">
<rect width="128" height="128" fill="white"/>
</clipPath>
</defs>
</svg>
