<svg width="19" height="19" viewBox="0 0 19 19" fill="none" xmlns="http://www.w3.org/2000/svg">
<path id="Vector" d="M13.2539 11.7559H12.4639L12.1839 11.4859C13.1639 10.3459 13.7539 8.86586 13.7539 7.25586C13.7539 3.66586 10.8439 0.755859 7.25391 0.755859C3.66391 0.755859 0.753906 3.66586 0.753906 7.25586C0.753906 10.8459 3.66391 13.7559 7.25391 13.7559C8.86391 13.7559 10.3439 13.1659 11.4839 12.1859L11.7539 12.4659V13.2559L16.7539 18.2459L18.2439 16.7559L13.2539 11.7559ZM7.25391 11.7559C4.76391 11.7559 2.75391 9.74586 2.75391 7.25586C2.75391 4.76586 4.76391 2.75586 7.25391 2.75586C9.74391 2.75586 11.7539 4.76586 11.7539 7.25586C11.7539 9.74586 9.74391 11.7559 7.25391 11.7559Z" fill="#fff"/>
</svg>
