<svg width="32" height="32" viewBox="0 0 32 32" fill="none" xmlns="http://www.w3.org/2000/svg">
<g id="Icons Social">
<path id="&#239;&#133;&#167;" d="M28.2344 9.85938C27.9531 8.73438 27.0625 7.84375 25.9844 7.5625C23.9688 7 16 7 16 7C16 7 7.98438 7 5.96875 7.5625C4.89062 7.84375 4 8.73438 3.71875 9.85938C3.15625 11.8281 3.15625 16.0469 3.15625 16.0469C3.15625 16.0469 3.15625 20.2188 3.71875 22.2344C4 23.3594 4.89062 24.2031 5.96875 24.4844C7.98438 25 16 25 16 25C16 25 23.9688 25 25.9844 24.4844C27.0625 24.2031 27.9531 23.3594 28.2344 22.2344C28.7969 20.2188 28.7969 16.0469 28.7969 16.0469C28.7969 16.0469 28.7969 11.8281 28.2344 9.85938ZM13.375 19.8438V12.25L20.0312 16.0469L13.375 19.8438Z" fill="#96A7AD"/>
</g>
</svg>
