<svg width="127" height="87" viewBox="0 0 127 87" fill="none" xmlns="http://www.w3.org/2000/svg">
<path d="M33.9042 36.0808C41.257 36.0808 47.2258 38.2002 51.8105 42.4389C56.4817 46.6775 58.8173 52.6463 58.8173 60.3451C58.8173 67.9574 56.2654 74.2289 51.1617 79.1596C46.058 84.0904 38.8349 86.5557 29.4925 86.5557C20.1501 86.5557 12.9271 83.4848 7.82337 77.3431C2.80616 71.2013 0.297554 63.243 0.297554 53.4681C0.297554 44.1257 2.63315 35.9943 7.30435 29.074C12.062 22.1538 17.901 16.3148 24.8213 11.5571C31.7416 6.79936 38.4889 2.9932 45.0632 0.138578L51.0319 12.0761C46.8798 13.8061 42.5113 16.185 37.9266 19.2126C33.4284 22.2403 29.579 25.5706 26.3784 29.2038C23.2643 32.7504 21.664 36.2538 21.5774 39.714C21.9235 39.2815 23.1778 38.5894 25.3404 37.6379C27.5029 36.5999 30.3576 36.0808 33.9042 36.0808ZM101.896 36.0808C109.249 36.0808 115.218 38.2002 119.802 42.4389C124.474 46.6775 126.809 52.6463 126.809 60.3451C126.809 67.9574 124.257 74.2289 119.154 79.1596C114.05 84.0904 106.827 86.5557 97.4844 86.5557C88.142 86.5557 80.9189 83.4848 75.8152 77.3431C70.798 71.2013 68.2894 63.243 68.2894 53.4681C68.2894 44.1257 70.625 35.9943 75.2962 29.074C80.0539 22.1538 85.8929 16.3148 92.8132 11.5571C99.7335 6.79936 106.481 2.9932 113.055 0.138578L119.024 12.0761C114.872 13.8061 110.503 16.185 105.918 19.2126C101.42 22.2403 97.5709 25.5706 94.3702 29.2038C91.2561 32.7504 89.6558 36.2538 89.5693 39.714C89.9153 39.2815 91.1696 38.5894 93.3322 37.6379C95.4948 36.5999 98.3494 36.0808 101.896 36.0808Z" fill="#DBA349"/>
</svg>
